<mxfile host="app.diagrams.net" agent="Mozilla/5.0 (Windows NT 10.0; Win64; x64) AppleWebKit/537.36 (KHTML, like Gecko) Chrome/138.0.0.0 Safari/537.36" version="28.0.7">
  <diagram name="Trang-1" id="4IvK7bn8uz2M3PqPuvas">
    <mxGraphModel grid="1" page="1" gridSize="10" guides="1" tooltips="1" connect="1" arrows="1" fold="1" pageScale="1" pageWidth="827" pageHeight="1169" math="0" shadow="0">
      <root>
        <mxCell id="0" />
        <mxCell id="1" parent="0" />
        <mxCell id="4T3lluRS6qBI8MgiDvwI-1" value="&lt;h1 style=&quot;margin-top: 0px;&quot;&gt;Peseudo-code&lt;/h1&gt;&lt;div&gt;Begin&lt;/div&gt;&lt;div&gt;&lt;span style=&quot;white-space: pre;&quot;&gt;&#x9;&lt;/span&gt;Nhập N&lt;br&gt;&lt;/div&gt;&lt;div&gt;&lt;span style=&quot;white-space: pre;&quot;&gt;&#x9;&lt;/span&gt;Kiểm tra là số hay không&lt;br&gt;&lt;/div&gt;&lt;div&gt;&lt;span style=&quot;white-space: pre;&quot;&gt;&#x9;&lt;/span&gt;Nhập a1&lt;br&gt;&lt;/div&gt;&lt;div&gt;&lt;span style=&quot;white-space: pre;&quot;&gt;&#x9;&lt;/span&gt;Max=a1&lt;br&gt;&lt;/div&gt;&lt;div&gt;&lt;span style=&quot;white-space: pre;&quot;&gt;&#x9;&lt;/span&gt;&lt;span style=&quot;background-color: transparent;&quot;&gt;Nhập a1&lt;/span&gt;&lt;/div&gt;&lt;div&gt;&lt;span style=&quot;background-color: transparent; color: light-dark(rgb(0, 0, 0), rgb(255, 255, 255));&quot;&gt;&lt;span style=&quot;white-space: pre;&quot;&gt;&#x9;&lt;/span&gt;i = 2&lt;/span&gt;&lt;/div&gt;&lt;div&gt;&amp;nbsp; &amp;nbsp; &lt;span style=&quot;white-space: pre;&quot;&gt;&#x9;&lt;/span&gt;Lặp khi i ≤ N làm&lt;/div&gt;&lt;div&gt;&amp;nbsp; &amp;nbsp; &amp;nbsp; &amp;nbsp; Nhập ai&lt;/div&gt;&lt;div&gt;&amp;nbsp; &amp;nbsp; &amp;nbsp; &amp;nbsp; Nếu ai &amp;gt; max thì&lt;/div&gt;&lt;div&gt;&amp;nbsp; &amp;nbsp; &amp;nbsp; &amp;nbsp; &amp;nbsp; &amp;nbsp; max = ai&lt;/div&gt;&lt;div&gt;&amp;nbsp; &amp;nbsp; &amp;nbsp; &amp;nbsp; Kết thúc nếu&lt;/div&gt;&lt;div&gt;&amp;nbsp; &amp;nbsp; &amp;nbsp; &amp;nbsp; i = i + 1&lt;/div&gt;&lt;div&gt;&amp;nbsp; &amp;nbsp; Kết thúc lặp&lt;/div&gt;&lt;div&gt;&amp;nbsp;&lt;span style=&quot;background-color: transparent; color: light-dark(rgb(0, 0, 0), rgb(255, 255, 255));&quot;&gt;End&lt;/span&gt;&lt;/div&gt;" style="text;html=1;whiteSpace=wrap;overflow=hidden;rounded=0;" vertex="1" parent="1">
          <mxGeometry x="440" y="180" width="220" height="290" as="geometry" />
        </mxCell>
        <mxCell id="4T3lluRS6qBI8MgiDvwI-4" value="" style="edgeStyle=orthogonalEdgeStyle;rounded=0;orthogonalLoop=1;jettySize=auto;html=1;" edge="1" parent="1" source="4T3lluRS6qBI8MgiDvwI-2" target="4T3lluRS6qBI8MgiDvwI-3">
          <mxGeometry relative="1" as="geometry" />
        </mxCell>
        <mxCell id="4T3lluRS6qBI8MgiDvwI-2" value="Start" style="ellipse;whiteSpace=wrap;html=1;" vertex="1" parent="1">
          <mxGeometry x="180" width="120" height="80" as="geometry" />
        </mxCell>
        <mxCell id="k1ChlbSM_XhDu55dIdMk-2" value="" style="edgeStyle=orthogonalEdgeStyle;rounded=0;orthogonalLoop=1;jettySize=auto;html=1;" edge="1" parent="1" source="4T3lluRS6qBI8MgiDvwI-3" target="k1ChlbSM_XhDu55dIdMk-1">
          <mxGeometry relative="1" as="geometry" />
        </mxCell>
        <mxCell id="4T3lluRS6qBI8MgiDvwI-3" value="Input N" style="shape=parallelogram;perimeter=parallelogramPerimeter;whiteSpace=wrap;html=1;fixedSize=1;" vertex="1" parent="1">
          <mxGeometry x="180" y="120" width="120" height="60" as="geometry" />
        </mxCell>
        <mxCell id="4T3lluRS6qBI8MgiDvwI-24" value="" style="edgeStyle=orthogonalEdgeStyle;rounded=0;orthogonalLoop=1;jettySize=auto;html=1;" edge="1" parent="1" source="4T3lluRS6qBI8MgiDvwI-5" target="4T3lluRS6qBI8MgiDvwI-23">
          <mxGeometry relative="1" as="geometry" />
        </mxCell>
        <mxCell id="4T3lluRS6qBI8MgiDvwI-5" value="Nhập a1" style="shape=parallelogram;perimeter=parallelogramPerimeter;whiteSpace=wrap;html=1;fixedSize=1;" vertex="1" parent="1">
          <mxGeometry x="180" y="310" width="120" height="60" as="geometry" />
        </mxCell>
        <mxCell id="4T3lluRS6qBI8MgiDvwI-28" value="" style="edgeStyle=orthogonalEdgeStyle;rounded=0;orthogonalLoop=1;jettySize=auto;html=1;" edge="1" parent="1" source="4T3lluRS6qBI8MgiDvwI-23" target="4T3lluRS6qBI8MgiDvwI-27">
          <mxGeometry relative="1" as="geometry" />
        </mxCell>
        <mxCell id="4T3lluRS6qBI8MgiDvwI-23" value="Max = a1" style="shape=parallelogram;perimeter=parallelogramPerimeter;whiteSpace=wrap;html=1;fixedSize=1;" vertex="1" parent="1">
          <mxGeometry x="180" y="450" width="120" height="60" as="geometry" />
        </mxCell>
        <mxCell id="k1ChlbSM_XhDu55dIdMk-5" value="" style="edgeStyle=orthogonalEdgeStyle;rounded=0;orthogonalLoop=1;jettySize=auto;html=1;" edge="1" parent="1" source="4T3lluRS6qBI8MgiDvwI-27" target="k1ChlbSM_XhDu55dIdMk-4">
          <mxGeometry relative="1" as="geometry" />
        </mxCell>
        <mxCell id="4T3lluRS6qBI8MgiDvwI-27" value="i=2" style="shape=parallelogram;perimeter=parallelogramPerimeter;whiteSpace=wrap;html=1;fixedSize=1;" vertex="1" parent="1">
          <mxGeometry x="180" y="590" width="120" height="60" as="geometry" />
        </mxCell>
        <mxCell id="4T3lluRS6qBI8MgiDvwI-31" value="" style="edgeStyle=orthogonalEdgeStyle;rounded=0;orthogonalLoop=1;jettySize=auto;html=1;" edge="1" parent="1" source="4T3lluRS6qBI8MgiDvwI-29" target="4T3lluRS6qBI8MgiDvwI-27">
          <mxGeometry relative="1" as="geometry" />
        </mxCell>
        <mxCell id="4T3lluRS6qBI8MgiDvwI-29" value="Input ai" style="shape=parallelogram;perimeter=parallelogramPerimeter;whiteSpace=wrap;html=1;fixedSize=1;" vertex="1" parent="1">
          <mxGeometry x="-20" y="590" width="120" height="60" as="geometry" />
        </mxCell>
        <mxCell id="k1ChlbSM_XhDu55dIdMk-3" value="" style="edgeStyle=orthogonalEdgeStyle;rounded=0;orthogonalLoop=1;jettySize=auto;html=1;" edge="1" parent="1" source="k1ChlbSM_XhDu55dIdMk-1" target="4T3lluRS6qBI8MgiDvwI-5">
          <mxGeometry relative="1" as="geometry" />
        </mxCell>
        <mxCell id="k1ChlbSM_XhDu55dIdMk-1" value="Kiểm tra là số hay không" style="shape=parallelogram;perimeter=parallelogramPerimeter;whiteSpace=wrap;html=1;fixedSize=1;" vertex="1" parent="1">
          <mxGeometry x="180" y="200" width="120" height="60" as="geometry" />
        </mxCell>
        <mxCell id="k1ChlbSM_XhDu55dIdMk-7" value="" style="edgeStyle=orthogonalEdgeStyle;rounded=0;orthogonalLoop=1;jettySize=auto;html=1;" edge="1" parent="1" source="k1ChlbSM_XhDu55dIdMk-4" target="k1ChlbSM_XhDu55dIdMk-6">
          <mxGeometry relative="1" as="geometry" />
        </mxCell>
        <mxCell id="oxDCjHTECRYlnMQZkngW-2" value="" style="edgeStyle=orthogonalEdgeStyle;rounded=0;orthogonalLoop=1;jettySize=auto;html=1;" edge="1" parent="1" source="k1ChlbSM_XhDu55dIdMk-4" target="oxDCjHTECRYlnMQZkngW-1">
          <mxGeometry relative="1" as="geometry" />
        </mxCell>
        <mxCell id="k1ChlbSM_XhDu55dIdMk-4" value="i&amp;lt;=n" style="rhombus;whiteSpace=wrap;html=1;" vertex="1" parent="1">
          <mxGeometry x="200" y="720" width="80" height="80" as="geometry" />
        </mxCell>
        <mxCell id="k1ChlbSM_XhDu55dIdMk-9" value="" style="edgeStyle=orthogonalEdgeStyle;rounded=0;orthogonalLoop=1;jettySize=auto;html=1;" edge="1" parent="1" source="k1ChlbSM_XhDu55dIdMk-6" target="k1ChlbSM_XhDu55dIdMk-8">
          <mxGeometry relative="1" as="geometry" />
        </mxCell>
        <mxCell id="k1ChlbSM_XhDu55dIdMk-14" style="edgeStyle=orthogonalEdgeStyle;rounded=0;orthogonalLoop=1;jettySize=auto;html=1;entryX=1;entryY=0.5;entryDx=0;entryDy=0;" edge="1" parent="1" source="k1ChlbSM_XhDu55dIdMk-6" target="k1ChlbSM_XhDu55dIdMk-10">
          <mxGeometry relative="1" as="geometry">
            <mxPoint x="620" y="760" as="targetPoint" />
            <Array as="points">
              <mxPoint x="240" y="1000" />
              <mxPoint x="241" y="1000" />
              <mxPoint x="241" y="1040" />
              <mxPoint x="540" y="1040" />
              <mxPoint x="540" y="760" />
            </Array>
          </mxGeometry>
        </mxCell>
        <mxCell id="k1ChlbSM_XhDu55dIdMk-6" value="ai&amp;gt;max" style="rhombus;whiteSpace=wrap;html=1;" vertex="1" parent="1">
          <mxGeometry x="200" y="880" width="80" height="80" as="geometry" />
        </mxCell>
        <mxCell id="k1ChlbSM_XhDu55dIdMk-11" value="" style="edgeStyle=orthogonalEdgeStyle;rounded=0;orthogonalLoop=1;jettySize=auto;html=1;" edge="1" parent="1" source="k1ChlbSM_XhDu55dIdMk-8" target="k1ChlbSM_XhDu55dIdMk-10">
          <mxGeometry relative="1" as="geometry" />
        </mxCell>
        <mxCell id="k1ChlbSM_XhDu55dIdMk-8" value="max=ai" style="rhombus;whiteSpace=wrap;html=1;" vertex="1" parent="1">
          <mxGeometry x="360" y="880" width="80" height="80" as="geometry" />
        </mxCell>
        <mxCell id="k1ChlbSM_XhDu55dIdMk-12" value="" style="edgeStyle=orthogonalEdgeStyle;rounded=0;orthogonalLoop=1;jettySize=auto;html=1;" edge="1" parent="1" source="k1ChlbSM_XhDu55dIdMk-10" target="k1ChlbSM_XhDu55dIdMk-4">
          <mxGeometry relative="1" as="geometry" />
        </mxCell>
        <mxCell id="k1ChlbSM_XhDu55dIdMk-10" value="i+1" style="shape=parallelogram;perimeter=parallelogramPerimeter;whiteSpace=wrap;html=1;fixedSize=1;" vertex="1" parent="1">
          <mxGeometry x="340" y="730" width="120" height="60" as="geometry" />
        </mxCell>
        <mxCell id="k1ChlbSM_XhDu55dIdMk-13" value="Đúng" style="text;html=1;align=center;verticalAlign=middle;whiteSpace=wrap;rounded=0;" vertex="1" parent="1">
          <mxGeometry x="290" y="880" width="60" height="30" as="geometry" />
        </mxCell>
        <mxCell id="oxDCjHTECRYlnMQZkngW-6" value="" style="edgeStyle=orthogonalEdgeStyle;rounded=0;orthogonalLoop=1;jettySize=auto;html=1;" edge="1" parent="1" source="oxDCjHTECRYlnMQZkngW-1" target="oxDCjHTECRYlnMQZkngW-5">
          <mxGeometry relative="1" as="geometry" />
        </mxCell>
        <mxCell id="oxDCjHTECRYlnMQZkngW-1" value="Display Max" style="shape=parallelogram;perimeter=parallelogramPerimeter;whiteSpace=wrap;html=1;fixedSize=1;" vertex="1" parent="1">
          <mxGeometry x="20" y="730" width="120" height="60" as="geometry" />
        </mxCell>
        <mxCell id="oxDCjHTECRYlnMQZkngW-3" value="Sai" style="text;html=1;align=center;verticalAlign=middle;whiteSpace=wrap;rounded=0;" vertex="1" parent="1">
          <mxGeometry x="190" y="980" width="60" height="30" as="geometry" />
        </mxCell>
        <mxCell id="oxDCjHTECRYlnMQZkngW-5" value="End" style="ellipse;whiteSpace=wrap;html=1;" vertex="1" parent="1">
          <mxGeometry y="860" width="160" height="80" as="geometry" />
        </mxCell>
        <mxCell id="oxDCjHTECRYlnMQZkngW-7" value="Sai" style="text;html=1;align=center;verticalAlign=middle;whiteSpace=wrap;rounded=0;" vertex="1" parent="1">
          <mxGeometry x="140" y="720" width="60" height="30" as="geometry" />
        </mxCell>
        <mxCell id="oxDCjHTECRYlnMQZkngW-8" value="Đúng" style="text;html=1;align=center;verticalAlign=middle;whiteSpace=wrap;rounded=0;" vertex="1" parent="1">
          <mxGeometry x="240" y="810" width="60" height="30" as="geometry" />
        </mxCell>
      </root>
    </mxGraphModel>
  </diagram>
</mxfile>
